<?xml version="1.0" encoding="UTF-8" standalone="no"?>
<svg
   xmlns:dc="http://purl.org/dc/elements/1.1/"
   xmlns:cc="http://creativecommons.org/ns#"
   xmlns:rdf="http://www.w3.org/1999/02/22-rdf-syntax-ns#"
   xmlns:svg="http://www.w3.org/2000/svg"
   xmlns="http://www.w3.org/2000/svg"
   id="svg1461"
   version="1.1"
   viewBox="0 0 210 297"
   height="297mm"
   width="210mm">
  <defs
     id="defs1455" />
  <metadata
     id="metadata1458">
    <rdf:RDF>
      <cc:Work
         rdf:about="">
        <dc:format>image/svg+xml</dc:format>
        <dc:type
           rdf:resource="http://purl.org/dc/dcmitype/StillImage" />
        <dc:title></dc:title>
      </cc:Work>
    </rdf:RDF>
  </metadata>
  <g
     id="layer1">
    <g
       transform="matrix(1.1022061,0,0,1.080852,-8.7764172,-2.192456)"
       id="g2058">
      <ellipse
         style="fill:#ffffff;fill-opacity:0.992157;stroke:#030203;stroke-width:0;stroke-linejoin:round;stroke-miterlimit:4;stroke-dasharray:none;stroke-opacity:0.982877"
         id="ellipse6798"
         cx="102.64854"
         cy="111.95795"
         rx="93.481659"
         ry="84.841042" />
      <g
         style="font-style:normal;font-weight:normal;font-size:50.8px;line-height:1.25;font-family:sans-serif;white-space:pre;shape-inside:url(#rect3472);fill:#2c89a0;fill-opacity:1;stroke:none"
         id="text3454"
         transform="matrix(0,1.9621594,-2.2872478,0,363.85504,9.8962582)"
         aria-label="&lt;">
        <path
           id="path3484"
           style="font-size:50.8px;fill:#2c89a0"
           d="m 72.647656,114.11806 c 0,0 -23.096218,-5.24548 -28.624609,-12.72481 -0.653972,-0.88476 -0.653972,-2.191022 0,-3.075777 5.528392,-7.479327 28.624609,-12.724804 28.624609,-12.724804 0.898949,8.402172 -14.509922,10.763106 -22.572266,14.262695 8.377958,4.845206 22.572266,5.233746 22.572266,14.262696 z" />
      </g>
      <g
         style="font-style:normal;font-weight:normal;font-size:50.8px;line-height:1.25;font-family:sans-serif;white-space:pre;shape-inside:url(#rect3474);fill:#2ca05a;fill-opacity:1;stroke:none"
         id="text3458"
         transform="matrix(0,1.9621594,-2.2872478,0,297.73925,9.7518626)"
         aria-label="&lt;">
        <path
           id="path3478"
           style="font-size:50.8px;fill:#2ca05a"
           d="m 72.647656,114.11806 c 0,0 -23.096218,-5.24548 -28.624609,-12.72481 -0.653972,-0.88476 -0.653972,-2.191022 0,-3.075777 5.528392,-7.479327 28.624609,-12.724804 28.624609,-12.724804 0.898949,8.402172 -14.509922,10.763106 -22.572266,14.262695 8.377958,4.845206 22.572266,5.233746 22.572266,14.262696 z" />
      </g>
      <ellipse
         style="fill:#a02c89;stroke-width:0.393665"
         cy="64.485466"
         cx="102.23758"
         id="ellipse3460"
         rx="13.59653"
         ry="12.916096" />
      <ellipse
         id="ellipse3462"
         cx="135.34494"
         cy="82.920815"
         style="fill:#2c89a0;stroke-width:0.28431"
         rx="9.8197155"
         ry="9.3282909" />
      <ellipse
         id="ellipse3464"
         cx="68.888107"
         cy="82.920815"
         style="fill:#2ca05a;stroke-width:0.28431"
         rx="9.8197155"
         ry="9.3282909" />
      <g
         style="font-style:normal;font-weight:normal;font-size:50.8px;line-height:1.25;font-family:sans-serif;white-space:pre;shape-inside:url(#rect3476);fill:#a02c89;fill-opacity:1;stroke:none"
         id="text3470"
         transform="matrix(0,2.4668635,-2.2872478,0,330.47267,-26.184444)"
         aria-label="&lt;">
        <path
           id="path3481"
           style="font-size:50.8px;fill:#a02c89"
           d="m 72.647656,114.11806 c 0,0 -23.096218,-5.24548 -28.624609,-12.72481 -0.653972,-0.88476 -0.653972,-2.191022 0,-3.075777 5.528392,-7.479327 28.624609,-12.724804 28.624609,-12.724804 0.898949,8.402172 -14.509922,10.763106 -22.572266,14.262695 8.377958,4.845206 22.572266,5.233746 22.572266,14.262696 z" />
      </g>
    </g>
  </g>
</svg>
