<svg height="512" viewBox="0 0 64 64" width="512" xmlns="http://www.w3.org/2000/svg" xmlns:xlink="http://www.w3.org/1999/xlink"><linearGradient id="New_Gradient_Swatch_1" gradientUnits="userSpaceOnUse" x1="32" x2="32" y1="1.243" y2="66.19"><stop offset="0" stop-color="#fff33b"/><stop offset=".014" stop-color="#fee72e"/><stop offset=".042" stop-color="#fed51b"/><stop offset=".07" stop-color="#fdca10"/><stop offset=".1" stop-color="#fdc70c"/><stop offset=".4" stop-color="#f3903f"/><stop offset=".8" stop-color="#ed683c"/><stop offset="1" stop-color="#e93e3a"/></linearGradient><linearGradient id="New_Gradient_Swatch_1-3" x1="9" x2="9" xlink:href="#New_Gradient_Swatch_1" y1="1.243" y2="66.19"/><linearGradient id="New_Gradient_Swatch_1-4" x1="13" x2="13" xlink:href="#New_Gradient_Swatch_1" y1="1.243" y2="66.19"/><linearGradient id="New_Gradient_Swatch_1-5" x1="17" x2="17" xlink:href="#New_Gradient_Swatch_1" y1="1.243" y2="66.19"/><linearGradient id="New_Gradient_Swatch_1-6" x1="47" x2="47" xlink:href="#New_Gradient_Swatch_1" y1="1.243" y2="66.19"/><linearGradient id="New_Gradient_Swatch_1-7" x1="51" x2="51" xlink:href="#New_Gradient_Swatch_1" y1="1.243" y2="66.19"/><linearGradient id="New_Gradient_Swatch_1-8" x1="55" x2="55" xlink:href="#New_Gradient_Swatch_1" y1="1.243" y2="66.19"/><linearGradient id="New_Gradient_Swatch_1-9" x1="19.854" x2="19.854" xlink:href="#New_Gradient_Swatch_1" y1="1.243" y2="66.19"/><linearGradient id="New_Gradient_Swatch_1-10" x1="30.146" x2="30.146" xlink:href="#New_Gradient_Swatch_1" y1="1.243" y2="66.19"/><linearGradient id="New_Gradient_Swatch_1-11" gradientTransform="matrix(.165 .986 -.986 .165 56.395 5.417)" x1="25" x2="25" xlink:href="#New_Gradient_Swatch_1" y1="1.243" y2="66.19"/><g id="Cloud_Computing" data-name="Cloud Computing"><path d="m61 52h-1v-35a5.006 5.006 0 0 0 -5-5h-6.682a7.011 7.011 0 0 0 -5.65-3.968 6.019 6.019 0 0 0 -5.668-4.032 5.762 5.762 0 0 0 -1.5.2 7.986 7.986 0 0 0 -13.242 3.8 6.994 6.994 0 0 0 -6.574 4h-6.684a5.006 5.006 0 0 0 -5 5v35h-1a1 1 0 0 0 -1 1v4a5.006 5.006 0 0 0 5 5h50a5.006 5.006 0 0 0 5-5v-4a1 1 0 0 0 -1-1zm-12.685-34h4.685a1 1 0 0 1 1 1v29h-44v-29a1 1 0 0 1 1-1h4.685a7 7 0 0 0 6.315 4h2v4h-9a1 1 0 0 0 -1 1v18a1 1 0 0 0 1 1h20a1 1 0 0 0 1-1v-18a1 1 0 0 0 -1-1h-9v-4h12v19a1 1 0 0 0 1 1h5.184a3 3 0 1 0 0-2h-4.184v-18h2v9a1 1 0 0 0 1 1h1.184a3 3 0 1 0 0-2h-.184v-8.3a7.024 7.024 0 0 0 4.315-3.7zm-14.315 10v16h-18v-16zm12 13a1 1 0 1 1 1 1 1 1 0 0 1 -1-1zm0-10a1 1 0 1 1 1 1 1 1 0 0 1 -1-1zm-24-21a4.949 4.949 0 0 1 .888.084 1 1 0 0 0 1.168-.857 5.988 5.988 0 0 1 10.414-3.218 1 1 0 0 0 1.1.267 3.987 3.987 0 0 1 5.35 2.924 1 1 0 0 0 .98.8c.016 0 .076 0 .115-.005a5 5 0 0 1 -.015 10.005h-20a5 5 0 0 1 0-10zm-16 7a3 3 0 0 1 3-3h6.08a6.29 6.29 0 0 0 0 2h-4.08a3 3 0 0 0 -3 3v30a1 1 0 0 0 1 1h46a1 1 0 0 0 1-1v-30a3 3 0 0 0 -3-3h-4.08a6.329 6.329 0 0 0 0-2h6.08a3 3 0 0 1 3 3v35h-16a1 1 0 0 0 -1 1v2a1 1 0 0 1 -1 1h-16a1 1 0 0 1 -1-1v-2a1 1 0 0 0 -1-1h-16zm54 40a3 3 0 0 1 -3 3h-50a3 3 0 0 1 -3-3v-3h17v1a3 3 0 0 0 3 3h16a3 3 0 0 0 3-3v-1h17z" fill="url(#New_Gradient_Swatch_1)"/><path d="m27 52h10v2h-10z" fill="url(#New_Gradient_Swatch_1)"/><path d="m8 56h2v2h-2z" fill="url(#New_Gradient_Swatch_1-3)"/><path d="m12 56h2v2h-2z" fill="url(#New_Gradient_Swatch_1-4)"/><path d="m16 56h2v2h-2z" fill="url(#New_Gradient_Swatch_1-5)"/><path d="m46 56h2v2h-2z" fill="url(#New_Gradient_Swatch_1-6)"/><path d="m50 56h2v2h-2z" fill="url(#New_Gradient_Swatch_1-7)"/><path d="m54 56h2v2h-2z" fill="url(#New_Gradient_Swatch_1-8)"/><path d="m21.293 40.707 1.414-1.414-3.293-3.293 3.293-3.293-1.414-1.414-4 4a1 1 0 0 0 0 1.414z" fill="url(#New_Gradient_Swatch_1-9)"/><path d="m28.707 40.707 4-4a1 1 0 0 0 0-1.414l-4-4-1.414 1.414 3.293 3.293-3.293 3.293z" fill="url(#New_Gradient_Swatch_1-10)"/><path d="m18.917 35h12.166v2h-12.166z" fill="url(#New_Gradient_Swatch_1-11)" transform="matrix(.165 -.986 .986 .165 -14.623 54.735)"/></g></svg>